<!DOCTYPE svg PUBLIC "-//W3C//DTD SVG 1.1//EN" "http://www.w3.org/Graphics/SVG/1.1/DTD/svg11.dtd">

<!-- Uploaded to: SVG Repo, www.svgrepo.com, Transformed by: SVG Repo Mixer Tools -->
<svg fill="#ff0000" width="800px" height="800px" viewBox="0 0 24 24" id="up-trend-round" data-name="Flat Line" xmlns="http://www.w3.org/2000/svg" class="icon flat-line" stroke="#000" transform="matrix(1, 0, 0, -1, 0, 0)">
  <g id="SVGRepo_bgCarrier" stroke-width="0"/>
  <g id="SVGRepo_tracerCarrier" stroke-linecap="round" stroke-linejoin="round"/>
  <g id="SVGRepo_iconCarrier">
    <path id="primary" d="M21,7l-6.79,6.79a1,1,0,0,1-1.42,0l-2.58-2.58a1,1,0,0,0-1.42,0L3,17" style="fill: none; stroke: #222; stroke-linecap: round; stroke-linejoin: round; stroke-width: 4;"/>
    <polyline id="primary-2" data-name="primary" points="21 11 21 7 17 7" style="fill: none; stroke: #222; stroke-linecap: round; stroke-linejoin: round; stroke-width: 4;"/>
    <path id="primary-inner" d="M21,7l-6.79,6.79a1,1,0,0,1-1.42,0l-2.58-2.58a1,1,0,0,0-1.42,0L3,17" style="fill: none; stroke: #ff0000; stroke-linecap: round; stroke-linejoin: round; stroke-width: 2;"/>
    <polyline id="primary-2-inner" data-name="primary" points="21 11 21 7 17 7" style="fill: none; stroke: #ff0000; stroke-linecap: round; stroke-linejoin: round; stroke-width: 2;"/>
  </g>
</svg>